<?xml version="1.0" standalone="no"?>
<!DOCTYPE svg PUBLIC "-//W3C//DTD SVG 20010904//EN"
 "http://www.w3.org/TR/2001/REC-SVG-20010904/DTD/svg10.dtd">
<svg version="1.0" xmlns="http://www.w3.org/2000/svg"
 width="559.000000pt" height="559.000000pt" viewBox="0 0 559.000000 559.000000"
 preserveAspectRatio="xMidYMid meet">
<metadata>
Created by potrace 1.11, written by Peter Selinger 2001-2013
</metadata>
<g transform="translate(0.000000,559.000000) scale(0.100000,-0.100000)"
fill="#000000" stroke="none">
<path d="M0 2795 l0 -2795 2795 0 2795 0 0 2795 0 2795 -2795 0 -2795 0 0
-2795z m2455 745 l-690 -690 580 -580 580 -580 690 690 690 690 325 -325 325
-325 -948 -948 -947 -947 -1230 1230 -1230 1230 947 947 948 948 325 -325 325
-325 -690 -690z m1273 107 l282 -282 -483 -483 -482 -482 -285 285 -285 285
480 480 c264 264 482 480 485 480 3 0 132 -127 288 -283z"/>
</g>
</svg>
